<?xml version="1.0" encoding="utf-8"?>
<!-- Generator: Adobe Illustrator 19.2.1, SVG Export Plug-In . SVG Version: 6.00 Build 0)  -->
<svg version="1.1" id="layer" xmlns="http://www.w3.org/2000/svg" xmlns:xlink="http://www.w3.org/1999/xlink" x="0px" y="0px"
	 viewBox="0 0 652 652" style="enable-background:new 0 0 652 652;" xml:space="preserve">
<style type="text/css">
	.st0{fill:#BED747;}
</style>
<g>
	<path class="st0" d="M605.6,365.5c0,10.7-8.6,19.3-19.3,19.3c-10.7,0-19.3-8.6-19.3-19.3c0-10.6,8.7-19.3,19.3-19.3
		C597,346.2,605.6,354.9,605.6,365.5"/>
	<polygon class="st0" points="20.6,261 114.5,261 114.5,292 54.2,292 54.2,307.1 114.6,307.1 114.6,336 54.2,336 54.2,351.1 
		114.6,351.1 114.6,382.2 20.6,382.2 	"/>
	<path class="st0" d="M213.2,382.2h-32.4V371h-0.3c-6.3,8.8-15.3,13.4-28.7,13.4c-15.8,0-30.2-9.7-30.2-29.9v-60.4h33.6v46.2
		c0,10.2,1.2,17.3,11,17.3c5.8,0,13.4-2.9,13.4-17v-46.5h33.6V382.2z"/>
	<path class="st0" d="M219.4,294.1h32.3v14.1h0.3c5.4-10.5,12.6-16.3,24.8-16.3c3.4,0,6.6,0.5,9.8,1.4v29.7
		c-3.4-1.2-6.5-2.2-13.2-2.2c-13.2,0-20.4,7.8-20.4,26.7v34.8h-33.6V294.1z"/>
	<path class="st0" d="M341.9,328.6c0-8.1-6.1-14.8-14.8-14.8c-10,0-15.8,5.3-17.3,14.8H341.9z M309.7,346.1
		c0.8,10,6.6,17.1,17.1,17.1c5.4,0,11.4-2,14.1-6.3h31.4c-6.8,19-25.3,27.8-45.3,27.8c-28.2,0-49.4-16.6-49.4-46
		c0-25.6,18.7-46.5,46.5-46.5c35,0,50.1,19.5,50.1,53.8H309.7z"/>
	<path class="st0" d="M524.6,343c-4.1,2-8.7,3.2-13.2,4.2c-7.5,1.7-11.4,3.6-11.4,9.5c0,4.1,4.4,8.1,10.5,8.1
		c7.6,0,13.6-4.6,14.1-13.7V343z M556.8,362.9c0,6.6,0.4,12.4,5,19.7h-35.2c-0.8-2.4-1.4-5.9-1.2-8.3h-0.3
		c-7.1,8.1-17.5,10.5-28.4,10.5c-17,0-31.1-8.2-31.1-26.7c0-27.9,32.6-26.8,49.7-30c4.6-0.9,9.2-2.2,9.2-7.8c0-5.9-5.6-8.2-11-8.2
		c-10.4,0-12.4,5.3-12.6,9h-31.2c1-24.8,24.4-28.9,45.3-28.9c42.1,0,41.8,17.5,41.8,34.5V362.9z"/>
	<polygon class="st0" points="471.3,295 471.9,294.3 471.8,294.3 471.9,294.3 433.8,294.3 412.5,319.6 412.5,261.2 378.8,261.2 
		378.8,382.4 412.5,382.4 412.5,357.4 433.8,382.7 471.9,382.7 434.6,338.5 	"/>
	<path class="st0" d="M610.4,283.8c0-13.3-10.8-24-24-24c-13.3,0-24,10.8-24,24c0,3,0.5,5.8,1.5,8.5v0c0.3,0.7,0.6,1.4,0.9,2.1
		l18.3,40.5c0.5,1.3,1.8,2.3,3.3,2.3c1.5,0,2.8-1,3.3-2.3l18.3-40.5c0.3-0.7,0.6-1.4,0.9-2.1l0,0h0
		C609.8,289.6,610.4,286.8,610.4,283.8"/>
	<path class="st0" d="M611.3,378c0-2.5,2-4.5,4.6-4.5c2.6,0,4.6,2,4.6,4.5c0,2.5-2.1,4.5-4.6,4.5C613.4,382.5,611.3,380.6,611.3,378
		 M619.7,378c0-2.2-1.6-3.7-3.8-3.7c-2.2,0-3.7,1.6-3.7,3.7c0,2.2,1.6,3.7,3.7,3.7C618,381.7,619.7,380.2,619.7,378 M614.2,375.7
		h1.8c1.2,0,1.8,0.5,1.8,1.4v0c0,0.6-0.3,1-0.7,1.2l1,1.8h-1.5l-0.8-1.5h-0.2v1.5h-1.4V375.7z M615.9,377.7c0.4,0,0.6-0.2,0.6-0.5v0
		c0-0.3-0.2-0.4-0.6-0.4h-0.3v0.9H615.9z"/>
</g>
</svg>
